<svg width="18" height="24" viewBox="0 0 18 24" fill="none" xmlns="http://www.w3.org/2000/svg">
<path d="M17.0005 22.8357L14.5703 20.4055" stroke="#606060" stroke-width="1.5" stroke-linecap="round" stroke-linejoin="round"/>
<path d="M11.4791 21.7184C13.9474 21.7184 15.9484 19.7174 15.9484 17.2491C15.9484 14.7807 13.9474 12.7798 11.4791 12.7798C9.01075 12.7798 7.00977 14.7807 7.00977 17.2491C7.00977 19.7174 9.01075 21.7184 11.4791 21.7184Z" stroke="#606060" stroke-width="1.5" stroke-linecap="round" stroke-linejoin="round"/>
<path d="M13.3766 10.4591V5.64122L8.73536 1H2.54707C2.13676 1 1.74326 1.16299 1.45313 1.45313C1.16299 1.74326 1 2.13676 1 2.54707V17.2443C1 17.6546 1.16299 18.0481 1.45313 18.3382C1.74326 18.6283 2.13676 18.7913 2.54707 18.7913H5.07657" stroke="#606060" stroke-width="1.5" stroke-linecap="round" stroke-linejoin="round"/>
<path d="M8.73438 1V5.64122H13.3756" fill="#606060"/>
<path d="M4.86719 8.91205H9.5084" stroke="#606060" stroke-width="1.5" stroke-linecap="round" stroke-linejoin="round"/>
</svg>
