<svg width="67" height="67" viewBox="0 0 67 67" fill="none" xmlns="http://www.w3.org/2000/svg">
<circle cx="33.5" cy="33.5" r="33.5" fill="#EBFDF3"/>
<circle cx="33.5" cy="33.5" r="25.5" fill="#D2FADF"/>
<path d="M43.0003 23L41.0003 25M33.3903 32.61L37.5003 28.5M37.5003 28.5L40.5003 31.5L44.0003 28L41.0003 25M37.5003 28.5L41.0003 25M33.3903 32.61C33.9066 33.1195 34.3171 33.726 34.598 34.3948C34.879 35.0635 35.0249 35.7813 35.0273 36.5066C35.0297 37.232 34.8887 37.9507 34.6122 38.6213C34.3357 39.2919 33.9293 39.9012 33.4164 40.4141C32.9035 40.9271 32.2942 41.3334 31.6236 41.6099C30.953 41.8864 30.2343 42.0275 29.5089 42.025C28.7835 42.0226 28.0658 41.8767 27.3971 41.5958C26.7283 41.3148 26.1217 40.9043 25.6123 40.388C24.6104 39.3507 24.056 37.9614 24.0686 36.5193C24.0811 35.0772 24.6595 33.6977 25.6793 32.678C26.699 31.6583 28.0785 31.0798 29.5206 31.0673C30.9627 31.0548 32.352 31.6091 33.3893 32.611L33.3903 32.61Z" stroke="#219560" stroke-width="2" stroke-linecap="round" stroke-linejoin="round"/>
</svg>
