<svg width="67" height="67" viewBox="0 0 67 67" fill="none" xmlns="http://www.w3.org/2000/svg">
<circle cx="33.5" cy="33.5" r="33.5" fill="#B4C0C9"/>
<circle cx="33.5" cy="33.5" r="25.5" fill="#556F83" fill-opacity="0.12"/>
<path d="M41.9998 23L39.9998 25M32.3898 32.61L36.4998 28.5M36.4998 28.5L39.4998 31.5L42.9998 28L39.9998 25M36.4998 28.5L39.9998 25M32.3898 32.61C32.9061 33.1195 33.3166 33.726 33.5975 34.3948C33.8785 35.0635 34.0244 35.7813 34.0268 36.5066C34.0292 37.232 33.8882 37.9507 33.6117 38.6213C33.3352 39.2919 32.9288 39.9012 32.4159 40.4141C31.903 40.9271 31.2937 41.3334 30.6231 41.6099C29.9525 41.8864 29.2338 42.0275 28.5084 42.025C27.7831 42.0226 27.0653 41.8767 26.3966 41.5958C25.7278 41.3148 25.1213 40.9043 24.6118 40.388C23.6099 39.3507 23.0555 37.9614 23.0681 36.5193C23.0806 35.0772 23.659 33.6977 24.6788 32.678C25.6985 31.6583 27.078 31.0798 28.5201 31.0673C29.9622 31.0548 31.3515 31.6091 32.3888 32.611L32.3898 32.61Z" stroke="#556F83" stroke-width="2" stroke-linecap="round" stroke-linejoin="round"/>
</svg>
