<svg width="21" height="28" viewBox="0 0 21 28" fill="none" xmlns="http://www.w3.org/2000/svg">
<path d="M13.2433 25.2049C16.127 25.2049 18.4647 22.8672 18.4647 19.9835C18.4647 17.0998 16.127 14.7621 13.2433 14.7621C10.3596 14.7621 8.02185 17.0998 8.02185 19.9835C8.02185 22.8672 10.3596 25.2049 13.2433 25.2049Z" stroke="white" stroke-width="2" stroke-linecap="round" stroke-linejoin="round"/>
<path d="M19.7701 26.5102L16.9309 23.671" stroke="white" stroke-width="2" stroke-linecap="round" stroke-linejoin="round"/>
<path d="M15.4593 12.0509V6.42224L10.0371 1H2.80742C2.32806 1 1.86834 1.19042 1.52938 1.52938C1.19042 1.86834 1 2.32806 1 2.80741V19.9779C1 20.4572 1.19042 20.9169 1.52938 21.2559C1.86834 21.5948 2.32806 21.7853 2.80742 21.7853H5.76258" stroke="white" stroke-width="2" stroke-linecap="round" stroke-linejoin="round"/>
<path d="M10.037 1V6.42225H15.4593" stroke="white" stroke-width="2" stroke-linecap="round" stroke-linejoin="round"/>
<path d="M5.51855 10.2435H10.9408" stroke="white" stroke-width="2" stroke-linecap="round" stroke-linejoin="round"/>
</svg>
